<?xml version="1.0" encoding="utf-8"?><svg version="1.1" id="Layer_1" xmlns="http://www.w3.org/2000/svg" xmlns:xlink="http://www.w3.org/1999/xlink" x="0px" y="0px" viewBox="0 0 122.88 98.08" style="enable-background:new 0 0 122.88 98.08" xml:space="preserve"><g><path d="M13.78,13.25V3.84C13.78,1.72,15.5,0,17.62,0s3.84,1.72,3.84,3.84v9.41h9.73V3.84c0-2.12,1.72-3.84,3.84-3.84 c2.12,0,3.84,1.72,3.84,3.84v9.41h9.73V3.84c0-2.12,1.72-3.84,3.84-3.84c2.12,0,3.84,1.72,3.84,3.84v9.41h9.73V3.84 c0-2.12,1.72-3.84,3.84-3.84c2.12,0,3.84,1.72,3.84,3.84v9.41h9.73V3.84c0-2.12,1.72-3.84,3.84-3.84c2.12,0,3.84,1.72,3.84,3.84 v9.41h9.73V3.84c0-2.12,1.72-3.84,3.84-3.84c2.12,0,3.84,1.72,3.84,3.84v9.41h8.6c1.59,0,3.03,0.65,4.07,1.69 c1.04,1.04,1.69,2.48,1.69,4.07v60.66c0,1.57-0.65,3.01-1.69,4.06l0.01,0.01c-1.04,1.04-2.48,1.69-4.07,1.69h-8.6v8.82 c0,2.12-1.72,3.84-3.84,3.84c-2.12,0-3.84-1.72-3.84-3.84v-8.82h-9.73v8.82c0,2.12-1.72,3.84-3.84,3.84 c-2.12,0-3.84-1.72-3.84-3.84v-8.82H73.7v8.82c0,2.12-1.72,3.84-3.84,3.84c-2.12,0-3.84-1.72-3.84-3.84v-8.82h-9.73v8.82 c0,2.12-1.72,3.84-3.84,3.84c-2.12,0-3.84-1.72-3.84-3.84v-8.82h-9.73v8.82c0,2.12-1.72,3.84-3.84,3.84 c-2.12,0-3.84-1.72-3.84-3.84v-8.82h-9.73v8.82c0,2.12-1.72,3.84-3.84,3.84s-3.84-1.72-3.84-3.84v-8.82H5.75 c-1.59,0-3.03-0.65-4.07-1.69C0.65,82.69,0,81.25,0,79.67V19.01c0-1.59,0.65-3.03,1.69-4.07c0.12-0.12,0.25-0.23,0.38-0.33 c1.01-0.84,2.29-1.35,3.69-1.35H13.78L13.78,13.25z M115.2,20.93H7.68v56.81H115.2V20.93L115.2,20.93z"/></g></svg>